<?xml version="1.0" encoding="UTF-8" standalone="no"?>
<svg width="8.46667mm" height="8.46667mm"
 viewBox="0 0 24 24"
 xmlns="http://www.w3.org/2000/svg" xmlns:xlink="http://www.w3.org/1999/xlink" version="1.2" baseProfile="tiny">
<title>Qt SVG Document</title>
<desc>Generated with Qt</desc>
<defs>
</defs>
<g fill="none" stroke="black" stroke-width="1" fill-rule="evenodd" stroke-linecap="square" stroke-linejoin="bevel" >

<g fill="none" stroke="#000000" stroke-opacity="1" stroke-width="1" stroke-linecap="square" stroke-linejoin="bevel" transform="matrix(1,0,0,1,0,0)"
font-family="Sans Serif" font-size="9" font-weight="400" font-style="normal" 
>
</g>

<g fill="none" stroke="currentColor" stroke-opacity="1" stroke-width="1.7" stroke-linecap="round" stroke-linejoin="round" transform="matrix(1,0,0,1,0,0)"
font-family="Sans Serif" font-size="9" font-weight="400" font-style="normal" 
>
<path vector-effect="none" fill-rule="evenodd" d="M8,7 L8,4 L20,4 L20,16 L17,16 "/>
<path vector-effect="none" fill-rule="evenodd" d="M4,10 C4,8.89543 4.89543,8 6,8 L14,8 C15.1046,8 16,8.89543 16,10 L16,18 C16,19.1046 15.1046,20 14,20 L6,20 C4.89543,20 4,19.1046 4,18 L4,10 Z "/>
</g>

<g fill="none" stroke="#000000" stroke-opacity="1" stroke-width="1" stroke-linecap="square" stroke-linejoin="bevel" transform="matrix(1,0,0,1,0,0)"
font-family="Sans Serif" font-size="9" font-weight="400" font-style="normal" 
>
</g>
</g>
</svg>
